<?xml version="1.0" standalone="no"?>
<!DOCTYPE svg PUBLIC "-//W3C//DTD SVG 20010904//EN"
 "http://www.w3.org/TR/2001/REC-SVG-20010904/DTD/svg10.dtd">
<svg version="1.0" xmlns="http://www.w3.org/2000/svg"
 width="300.000000pt" height="400.000000pt" viewBox="0 0 300.000000 400.000000"
 preserveAspectRatio="xMidYMid meet">
<metadata>
Created by potrace 1.10, written by Peter Selinger 2001-2011
</metadata>
<g transform="translate(0.000000,400.000000) scale(0.100000,-0.100000)"
fill="#000000" stroke="none">
<path d="M1220 3531 c-168 -37 -300 -97 -431 -196 -505 -379 -561 -1091 -122
-1565 34 -37 60 -77 74 -116 13 -36 37 -73 59 -94 20 -19 42 -54 50 -77 7 -22
29 -63 49 -90 20 -26 49 -69 64 -95 28 -48 101 -118 123 -118 7 0 25 -11 41
-24 44 -36 88 -56 130 -57 31 -1 44 -8 71 -39 l32 -37 -39 -7 c-56 -9 -104
-51 -96 -84 7 -28 71 -125 117 -178 l31 -36 -27 -56 c-35 -70 -46 -161 -22
-181 8 -7 32 -13 53 -13 199 2 259 5 268 12 6 4 64 4 130 0 66 -4 122 -5 125
-3 3 3 -3 10 -13 17 -11 6 -42 28 -70 48 -55 41 -74 45 -115 24 -48 -25 -75
-11 -109 55 l-31 59 64 57 c69 61 90 103 79 155 -4 18 -8 80 -9 138 -1 58 -4
111 -7 119 -2 9 7 17 26 21 41 9 54 17 121 75 99 86 140 133 173 195 19 35 39
60 48 60 24 0 86 70 102 115 9 25 42 67 90 115 187 185 294 422 308 686 17
310 -103 604 -335 826 -138 132 -297 222 -482 274 -131 36 -390 44 -520 15z
m445 -18 c154 -30 320 -103 449 -200 l65 -48 -57 -7 c-78 -11 -162 -28 -162
-35 0 -6 104 -203 132 -250 l19 -32 -50 -26 c-28 -14 -51 -28 -51 -32 0 -8 41
-146 46 -155 3 -4 49 21 103 55 54 34 107 67 117 73 17 10 12 21 -65 133 -46
67 -80 125 -77 128 3 3 29 8 57 11 46 4 50 7 45 26 -20 72 -19 73 29 21 110
-118 196 -277 243 -445 24 -85 27 -112 27 -260 0 -141 -4 -177 -23 -249 -27
-98 -62 -185 -105 -261 l-32 -55 -3 153 c-2 116 -6 152 -15 149 -9 -3 -11 -38
-10 -133 l3 -129 -35 105 c-19 58 -37 117 -40 133 -4 15 -13 27 -21 27 -11 0
-14 -23 -14 -118 0 -150 10 -272 22 -272 6 0 8 58 6 144 -1 79 -1 142 2 140 2
-3 21 -57 42 -121 l37 -117 -41 -48 c-138 -165 -326 -284 -544 -345 -91 -25
-113 -27 -279 -27 -164 0 -189 3 -280 27 -121 33 -285 110 -375 177 -98 73
-225 209 -233 249 -11 53 -9 61 18 61 53 0 87 80 65 158 -11 44 -59 92 -90 92
-18 0 -20 -10 -22 -147 l-3 -148 -51 100 c-96 185 -130 338 -121 537 8 196 61
359 168 517 54 81 186 227 196 217 3 -3 -48 -112 -112 -242 l-116 -238 33 -28
c32 -27 68 -37 68 -19 0 5 39 44 87 86 98 86 93 86 113 -17 l11 -56 60 26 c32
14 59 30 59 36 0 30 -97 322 -131 396 l-40 84 23 18 c43 34 153 96 218 122
199 81 419 102 635 59z m-837 -363 c11 -30 37 -108 57 -174 31 -102 35 -121
23 -133 -20 -19 -47 -6 -54 26 -4 14 -11 35 -17 46 -6 11 -11 36 -12 55 -3 43
-31 106 -50 114 -23 9 -50 -25 -88 -111 -36 -80 -47 -131 -27 -118 14 8 37 54
76 150 18 44 35 73 38 65 10 -32 27 -113 24 -115 -26 -19 -164 -141 -166 -147
-5 -12 -36 -10 -49 3 -8 8 8 50 62 158 40 80 85 171 99 202 14 30 29 58 32 62
10 9 27 -18 52 -83z m1360 47 c3 -23 -2 -29 -26 -38 -16 -5 -35 -21 -43 -35
-12 -23 -11 -30 9 -67 12 -23 42 -69 67 -102 25 -33 45 -64 45 -70 0 -11 -35
-36 -111 -79 -51 -29 -62 -25 -73 30 -6 27 -2 34 34 63 22 17 40 40 40 49 0 9
-12 40 -26 67 -66 126 -84 165 -84 179 0 14 9 17 90 30 8 1 29 2 45 1 25 0 31
-5 33 -28z m-1543 -1057 c33 -64 8 -159 -42 -160 -10 0 -13 28 -13 105 0 102
1 105 20 95 11 -6 27 -24 35 -40z m227 -548 c70 -74 119 -136 124 -156 4 -17
24 -35 57 -54 29 -17 63 -42 76 -56 15 -16 35 -26 53 -26 15 0 28 -1 28 -2 0
-2 -7 -25 -15 -52 -8 -27 -15 -63 -15 -79 l0 -30 -22 20 c-13 11 -39 28 -58
38 -49 24 -86 61 -127 125 -20 30 -46 67 -59 83 -13 15 -33 55 -45 88 -15 40
-33 68 -52 82 -27 21 -67 84 -67 107 0 9 97 -60 122 -88z m1271 29 c-8 -30
-70 -98 -95 -105 -16 -3 -34 -27 -56 -70 -21 -40 -53 -82 -85 -111 -29 -25
-70 -63 -92 -85 -22 -22 -43 -40 -46 -40 -4 0 -9 13 -12 30 -4 16 -16 49 -27
72 -23 47 -19 52 42 62 26 4 50 18 77 45 21 21 61 51 87 67 27 15 63 39 79 54
30 27 125 100 131 100 1 0 0 -9 -3 -19z m-1132 -95 c97 -46 225 -86 272 -86
30 0 35 -11 12 -30 -9 -7 -15 -29 -15 -55 l0 -42 -57 5 c-48 4 -65 11 -112 48
-31 24 -62 44 -68 44 -7 0 -24 22 -37 49 -14 26 -42 62 -63 79 -21 17 -35 31
-32 32 4 0 49 -20 100 -44z m984 14 c-4 -6 -28 -22 -55 -35 -27 -14 -71 -45
-98 -69 -34 -30 -62 -45 -90 -50 -22 -3 -53 -17 -69 -29 -21 -19 -45 -25 -101
-30 -70 -6 -73 -5 -89 21 -9 15 -26 37 -37 50 l-19 22 69 0 c142 0 331 45 449
108 47 25 48 25 40 12z m-567 -136 c31 -20 66 -98 58 -130 -4 -13 -17 -31 -31
-40 -35 -23 -77 -10 -119 37 -29 31 -36 47 -36 79 0 75 58 100 128 54z m293
-114 c10 -25 18 -57 18 -72 1 -23 -4 -27 -40 -33 -32 -6 -39 -10 -34 -23 4
-10 10 -59 12 -109 l6 -93 -51 0 c-56 0 -212 41 -249 66 -13 8 -37 33 -53 56
-28 38 -34 41 -78 42 l-47 1 -3 38 c-2 21 4 60 13 88 21 63 48 66 101 9 38
-41 93 -66 121 -56 8 4 22 1 29 -5 18 -15 40 2 49 39 14 60 31 72 94 72 44 0
60 4 65 16 10 25 27 11 47 -36z m-318 -337 c17 -25 49 -66 70 -90 20 -24 37
-48 37 -53 0 -5 3 -17 6 -27 4 -14 1 -12 -15 6 -35 39 -34 18 3 -43 52 -87
130 -246 123 -252 -3 -4 -50 -3 -104 1 l-98 7 45 24 c25 13 55 23 68 24 12 0
22 1 22 3 0 1 -50 54 -112 117 -112 116 -211 251 -206 279 4 20 65 51 101 51
21 0 34 -10 60 -47z m191 -25 c33 -17 38 -17 33 -4 -5 12 0 16 22 16 27 0 30
-3 36 -49 10 -77 -31 -131 -100 -131 -38 0 -55 11 -55 34 0 20 -24 64 -41 76
-4 3 -27 33 -52 66 l-45 62 81 -25 c45 -14 100 -34 121 -45z m6 -182 c0 -3
-10 -16 -23 -30 l-23 -24 -16 29 -17 29 39 0 c22 0 40 -2 40 -4z m-135 -116
c48 -49 64 -70 51 -70 -21 0 -116 -50 -116 -61 0 -4 10 -10 23 -12 14 -3 10
-5 -13 -6 -19 0 -46 2 -59 6 -22 5 -23 10 -18 62 4 53 40 151 55 151 4 0 38
-32 77 -70z m341 -101 c22 -17 40 -32 42 -33 1 -2 -44 -1 -100 2 -57 2 -104 5
-104 6 -1 0 -5 11 -8 24 -7 20 -5 21 16 13 16 -6 32 -5 48 5 38 21 64 17 106
-17z"/>
<path d="M1150 3419 c-58 -10 -127 -25 -155 -32 l-50 -13 -3 -67 -3 -68 28 7
c15 4 38 11 51 15 23 9 23 9 17 -59 -9 -107 -25 -354 -25 -394 l0 -38 53 0 54
0 12 173 c6 94 14 209 18 253 l6 82 44 5 c25 2 49 9 54 14 6 6 9 39 7 75 l-3
65 -105 -18z m83 -67 c-8 -23 -33 -42 -56 -42 -36 0 -55 -36 -62 -118 -3 -42
-8 -97 -10 -122 -2 -25 -7 -83 -10 -130 -7 -99 -12 -130 -23 -130 -28 1 -30
18 -16 228 l15 213 -23 19 c-13 11 -33 19 -45 20 -19 0 -23 6 -23 29 0 35 0
35 136 60 86 16 101 16 111 4 6 -8 9 -22 6 -31z"/>
<path d="M1276 3248 c-3 -106 -9 -255 -13 -330 -5 -121 -4 -138 10 -138 8 0
79 20 156 45 103 34 141 50 141 62 0 18 -22 146 -26 152 -2 2 -42 -18 -90 -44
-53 -29 -85 -42 -81 -33 3 9 9 119 13 247 l7 231 -55 0 -55 0 -7 -192z m77
-63 c-7 -233 -4 -245 46 -245 14 0 40 9 56 20 53 35 75 23 75 -40 0 -31 5 -28
-214 -96 -19 -6 -19 1 -13 257 4 145 7 276 7 291 0 25 22 41 42 31 4 -2 5
-100 1 -218z"/>
<path d="M1769 3354 c-54 -125 -189 -491 -189 -512 0 -5 20 -23 45 -41 l45
-32 32 38 c62 71 121 133 127 133 4 0 18 -33 30 -72 13 -40 27 -83 32 -95 l8
-22 53 19 c30 11 52 25 51 32 -1 7 -14 45 -28 83 -15 39 -56 165 -92 280 -35
116 -71 216 -78 224 -12 12 -17 8 -36 -35z m59 -125 c13 -41 48 -150 78 -243
43 -132 52 -171 42 -178 -27 -16 -33 -5 -87 147 -6 17 -13 50 -16 75 -3 26
-16 58 -29 75 l-24 30 9 -50 c5 -27 13 -62 18 -76 8 -24 3 -32 -53 -88 -34
-34 -66 -58 -71 -54 -4 4 -5 3 -2 -3 4 -6 -2 -19 -12 -28 -16 -15 -22 -15 -40
-4 -24 15 -26 34 -9 75 6 15 23 62 38 103 64 178 115 300 125 297 5 -2 20 -37
33 -78z"/>
<path d="M1760 3105 c-17 -21 -70 -173 -70 -202 0 -50 20 -18 55 87 37 111 42
147 15 115z"/>
<path d="M719 2706 c-1 -9 -1 -27 -1 -41 0 -287 4 -405 12 -405 6 0 10 24 10
54 0 51 2 55 34 74 65 38 100 177 62 250 -30 57 -115 107 -117 68z m53 -27
c23 -12 57 -83 58 -119 0 -60 -50 -160 -81 -160 -5 0 -9 64 -9 145 0 80 3 145
6 145 3 0 14 -5 26 -11z"/>
<path d="M917 2703 c-4 -3 -7 -105 -7 -225 0 -171 3 -219 13 -215 8 2 11 21 8
57 -2 32 1 51 7 49 5 -2 28 -28 51 -56 23 -29 48 -53 56 -53 22 0 18 13 -11
41 -14 13 -35 37 -46 52 -20 28 -20 28 0 50 51 56 68 150 38 220 -22 53 -88
101 -109 80z m80 -76 c36 -68 11 -187 -47 -226 -23 -15 -23 -15 -17 9 4 14 7
80 7 148 0 119 1 122 20 112 11 -6 27 -25 37 -43z"/>
<path d="M1154 2702 c-43 -28 -71 -189 -55 -308 18 -124 55 -170 98 -120 90
105 51 492 -43 428z m47 -54 c21 -50 19 -281 -3 -330 -9 -21 -22 -38 -28 -38
-35 0 -63 197 -42 296 23 109 48 132 73 72z"/>
<path d="M1327 2573 c-12 -231 -9 -313 8 -313 11 0 15 13 15 53 0 48 3 56 31
76 84 63 91 208 13 286 -57 57 -60 52 -67 -102z m79 40 c21 -49 17 -122 -9
-167 -41 -73 -47 -61 -47 95 l0 142 21 -19 c12 -10 28 -33 35 -51z"/>
<path d="M1687 2703 c-11 -11 -8 -453 3 -453 6 0 10 27 10 60 0 33 4 60 10 60
5 0 23 -20 40 -45 32 -46 76 -83 87 -72 3 3 -19 34 -50 68 l-55 62 31 40 c30
36 32 44 32 117 0 64 -4 84 -21 107 -24 32 -77 66 -87 56z m62 -67 c29 -47 36
-89 21 -140 -11 -42 -54 -106 -63 -96 -8 9 5 270 14 270 4 0 17 -15 28 -34z"/>
<path d="M2030 2695 c0 -11 16 -69 35 -129 31 -96 35 -122 35 -213 0 -62 4
-103 10 -103 6 0 10 41 10 103 0 88 5 116 35 212 38 119 41 139 23 133 -6 -2
-24 -47 -39 -99 -15 -52 -30 -87 -33 -79 -3 8 -15 49 -27 90 -22 77 -49 124
-49 85z"/>
<path d="M1526 2623 c-3 -42 -6 -141 -6 -220 l0 -143 30 -1 c17 -1 35 -2 42
-3 6 -1 13 5 16 12 2 8 -7 12 -27 12 -30 0 -31 1 -31 45 0 44 1 45 31 45 20 0
29 4 26 13 -2 6 -16 12 -30 12 l-27 -1 0 138 0 138 30 0 c20 0 30 5 30 15 0
11 -11 15 -39 15 l-38 0 -7 -77z"/>
<path d="M1850 2685 c0 -10 10 -15 28 -15 l27 0 0 -202 c0 -125 4 -205 10
-208 6 -3 11 68 13 203 l2 207 25 0 c16 0 25 6 25 15 0 12 -14 15 -65 15 -51
0 -65 -3 -65 -15z"/>
<path d="M744 2197 c-2 -7 -3 -102 -2 -211 2 -157 6 -200 16 -204 11 -3 13 8
10 52 -1 31 1 56 5 56 4 0 16 -19 26 -42 25 -58 78 -128 96 -128 22 0 19 10
-14 45 -15 16 -41 53 -57 82 -27 49 -27 53 -12 65 48 36 65 176 28 235 -10 18
-33 39 -49 48 -36 18 -40 19 -47 2z m64 -42 c38 -48 35 -162 -5 -207 -33 -37
-38 -22 -35 107 2 69 7 125 12 125 5 0 17 -11 28 -25z"/>
<path d="M953 2203 l-33 -4 0 -113 c0 -62 3 -174 6 -248 l7 -135 32 -12 c41
-15 55 -14 55 3 0 7 -15 17 -32 22 -31 9 -33 12 -36 63 l-3 54 30 -6 c42 -9
42 20 1 34 l-30 11 0 154 0 154 31 0 c19 0 29 4 27 12 -5 14 -13 16 -55 11z"/>
<path d="M1084 2202 c-46 -30 -41 -123 13 -234 59 -121 56 -274 -5 -272 -28 1
-30 -32 -3 -39 34 -9 59 19 72 81 15 73 1 154 -43 248 -20 44 -34 89 -36 125
-4 51 -2 58 18 69 16 8 25 8 35 0 15 -12 31 3 20 20 -7 12 -55 13 -71 2z"/>
<path d="M1366 2202 c-7 -6 1 -391 10 -529 3 -46 10 -83 15 -83 4 0 10 42 11
93 l3 92 18 -50 c21 -62 63 -125 82 -125 21 0 18 20 -6 46 -12 13 -34 49 -49
80 l-27 58 20 34 c60 101 61 287 2 352 -19 21 -70 42 -79 32z m76 -75 c38 -76
11 -279 -42 -312 -7 -4 -10 56 -10 179 0 163 2 185 15 179 9 -3 25 -24 37 -46z"/>
<path d="M1715 2188 c-12 -57 -49 -567 -41 -575 16 -16 26 17 26 87 0 81 5 90
50 90 16 0 20 -11 26 -70 6 -65 17 -91 31 -76 5 5 -52 495 -64 544 -3 12 -9
22 -14 22 -5 0 -11 -10 -14 -22z m44 -352 c-2 -2 -14 -7 -27 -11 l-23 -7 6
124 c4 67 9 130 12 138 3 8 13 -43 21 -113 8 -70 13 -130 11 -131z"/>
<path d="M1220 2107 c0 -52 3 -182 7 -290 l6 -196 26 -6 c14 -3 34 -8 44 -11
12 -4 17 0 17 15 0 13 -9 21 -29 26 -25 5 -29 12 -35 52 -9 70 -9 73 22 73 34
0 43 7 35 26 -3 8 -18 14 -34 14 l-29 0 0 148 c0 81 -3 164 -6 185 l-7 37 37
0 c20 0 36 5 36 10 0 6 -20 10 -45 10 l-45 0 0 -93z"/>
<path d="M1513 2178 c16 -62 57 -344 66 -452 6 -65 12 -121 15 -123 4 -5 10
51 26 242 15 181 30 324 37 341 3 8 -1 14 -11 14 -9 0 -16 -1 -16 -2 0 -2 -7
-57 -15 -123 -8 -65 -15 -144 -15 -174 0 -30 -2 -52 -5 -50 -2 3 -12 54 -20
115 -23 160 -39 227 -54 232 -10 3 -12 -2 -8 -20z"/>
<path d="M1817 2194 c-10 -11 2 -24 24 -24 17 0 19 -8 19 -88 0 -166 13 -422
22 -422 4 0 8 115 8 255 0 252 0 255 21 255 12 0 19 5 17 13 -5 13 -99 23
-111 11z"/>
<path d="M1973 2078 c4 -66 7 -177 7 -245 0 -108 2 -123 17 -123 14 0 15 13
10 122 -4 66 -7 177 -7 245 0 108 -2 123 -17 123 -14 0 -15 -13 -10 -122z"/>
<path d="M2083 2168 c-25 -47 -26 -314 -1 -370 19 -44 29 -46 57 -17 28 30 44
117 44 234 0 125 -17 179 -55 183 -22 3 -30 -3 -45 -30z m58 -10 c18 -33 22
-221 7 -293 -14 -67 -36 -80 -50 -30 -14 46 -13 254 1 303 13 47 25 53 42 20z"/>
</g>
</svg>
